{"asset":{"version":"2.0","generator":"babylon.js glTF exporter for Maya 2018 v20210115.1"},"scene":0,"scenes":[{"nodes":[0,1]}],"nodes":[{"mesh":0,"scale":[1.0,1.5,1.0],"name":"pCylinder1"},{"translation":[0.0,0.0124567254,0.03606504],"rotation":[-0.0867971554,-0.0360867642,-0.0529812127,0.9941614],"scale":[3.46977377,3.46977377,3.46977377],"name":"aiAreaLight1"}],"meshes":[{"primitives":[{"attributes":{"POSITION":1,"TANGENT":2,"NORMAL":3,"TEXCOORD_0":4},"indices":0,"material":0}],"name":"pCylinder1"}],"accessors":[{"bufferView":0,"componentType":5123,"count":2880,"type":"SCALAR","name":"accessorIndices"},{"bufferView":1,"componentType":5126,"count":962,"max":[0.0128885023,0.01,0.0128885042],"min":[-0.0128885051,-0.01,-0.0128885079],"type":"VEC3","name":"accessorPositions"},{"bufferView":2,"componentType":5126,"count":962,"type":"VEC4","name":"accessorTangents"},{"bufferView":1,"byteOffset":11544,"componentType":5126,"count":962,"type":"VEC3","name":"accessorNormals"},{"bufferView":3,"componentType":5126,"count":962,"type":"VEC2","name":"accessorUVs"}],"bufferViews":[{"buffer":0,"byteLength":5760,"name":"bufferViewScalar"},{"buffer":0,"byteOffset":5760,"byteLength":23088,"byteStride":12,"name":"bufferViewFloatVec3"},{"buffer":0,"byteOffset":28848,"byteLength":15392,"byteStride":16,"name":"bufferViewFloatVec4"},{"buffer":0,"byteOffset":44240,"byteLength":7696,"byteStride":8,"name":"bufferViewFloatVec2"}],"buffers":[{"uri":"barrel.bin","byteLength":51936}],"materials":[{"pbrMetallicRoughness":{"baseColorFactor":[0.8,0.8,0.8,1.0],"baseColorTexture":{"index":0},"metallicFactor":0.0,"roughnessFactor":0.2},"name":"aiStandardSurface1"}],"textures":[{"sampler":0,"source":0,"name":"tunna.png"}],"images":[{"uri":"tunna.png"}],"samplers":[{"magFilter":9729,"minFilter":9987}]}